<svg xmlns="http://www.w3.org/2000/svg" xmlns:xlink="http://www.w3.org/1999/xlink" version="1.1" width="24px" height="24px" viewBox="0 0 256 256" xml:space="preserve">
	<defs>
	</defs>
	<g style="stroke: none; stroke-width: 0; stroke-dasharray: none; stroke-linecap: butt; stroke-linejoin: miter; stroke-miterlimit: 10; fill: none; fill-rule: nonzero; opacity: 1;" transform="translate(1.4065934065934016 1.4065934065934016) scale(2.81 2.81)" >
		<path d="M 2 70.03 c -0.522 0 -1.033 -0.205 -1.414 -0.586 c -0.533 -0.532 -0.721 -1.319 -0.487 -2.036 L 4.87 52.822 C 1.681 47.435 0 41.299 0 35.015 C 0 15.708 15.708 0 35.015 0 C 54.322 0 70.03 15.708 70.03 35.015 c 0 19.307 -15.708 35.015 -35.015 35.015 c -6.284 0 -12.419 -1.681 -17.806 -4.869 L 2.622 69.932 C 2.418 69.998 2.208 70.03 2 70.03 z M 17.463 60.974 c 0.373 0 0.742 0.104 1.065 0.308 c 4.939 3.106 10.64 4.749 16.487 4.749 c 17.102 0 31.015 -13.913 31.015 -31.015 C 66.03 17.914 52.117 4 35.015 4 C 17.914 4 4 17.914 4 35.015 c 0 5.847 1.643 11.548 4.75 16.487 c 0.316 0.504 0.393 1.122 0.208 1.688 L 5.127 64.903 l 11.715 -3.831 C 17.044 61.006 17.254 60.974 17.463 60.974 z" style="stroke: none; stroke-width: 1; stroke-dasharray: none; stroke-linecap: butt; stroke-linejoin: miter; stroke-miterlimit: 10; fill: rgb(0,0,0); fill-rule: nonzero; opacity: 1;" transform=" matrix(1 0 0 1 0 0) " stroke-linecap="round" />
		<path d="M 38.965 35.015 c 0 2.181 -1.768 3.95 -3.95 3.95 c -2.181 0 -3.95 -1.768 -3.95 -3.95 c 0 -1.42 0.749 -2.665 1.874 -3.361 c 0.603 -0.373 1.314 -0.589 2.076 -0.589 C 37.197 31.065 38.965 32.834 38.965 35.015 z" style="stroke: none; stroke-width: 1; stroke-dasharray: none; stroke-linecap: butt; stroke-linejoin: miter; stroke-miterlimit: 10; fill: rgb(0,0,0); fill-rule: nonzero; opacity: 1;" transform=" matrix(1 0 0 1 0 0) " stroke-linecap="round" />
		<path d="M 23.958 35.015 c 0 2.181 -1.768 3.95 -3.95 3.95 s -3.95 -1.768 -3.95 -3.95 c 0 -1.42 0.749 -2.665 1.874 -3.361 c 0.603 -0.373 1.314 -0.589 2.076 -0.589 C 22.19 31.065 23.958 32.834 23.958 35.015 z" style="stroke: none; stroke-width: 1; stroke-dasharray: none; stroke-linecap: butt; stroke-linejoin: miter; stroke-miterlimit: 10; fill: rgb(0,0,0); fill-rule: nonzero; opacity: 1;" transform=" matrix(1 0 0 1 0 0) " stroke-linecap="round" />
		<path d="M 53.972 35.015 c 0 2.181 -1.768 3.95 -3.95 3.95 c -2.181 0 -3.95 -1.768 -3.95 -3.95 c 0 -1.42 0.749 -2.665 1.874 -3.361 c 0.603 -0.373 1.314 -0.589 2.076 -0.589 C 52.204 31.065 53.972 32.834 53.972 35.015 z" style="stroke: none; stroke-width: 1; stroke-dasharray: none; stroke-linecap: butt; stroke-linejoin: miter; stroke-miterlimit: 10; fill: rgb(0,0,0); fill-rule: nonzero; opacity: 1;" transform=" matrix(1 0 0 1 0 0) " stroke-linecap="round" />
		<path d="M 88 90 c -0.208 0 -0.418 -0.032 -0.622 -0.099 l -14.586 -4.771 C 67.404 88.319 61.269 90 54.984 90 c -11.15 0 -21.735 -5.392 -28.314 -14.423 c -0.65 -0.893 -0.454 -2.144 0.439 -2.794 c 0.894 -0.648 2.144 -0.454 2.794 0.438 C 35.732 81.223 45.108 86 54.984 86 c 5.847 0 11.548 -1.643 16.488 -4.75 c 0.502 -0.316 1.121 -0.394 1.687 -0.208 l 11.714 3.831 l -3.831 -11.714 c -0.185 -0.565 -0.108 -1.184 0.208 -1.687 C 84.357 66.532 86 60.831 86 54.984 c 0 -9.876 -4.777 -19.252 -12.778 -25.081 c -0.893 -0.65 -1.089 -1.901 -0.438 -2.794 c 0.65 -0.892 1.899 -1.089 2.794 -0.439 C 84.608 33.25 90 43.834 90 54.984 c 0 6.284 -1.681 12.42 -4.869 17.808 l 4.771 14.586 c 0.233 0.717 0.046 1.504 -0.487 2.036 C 89.033 89.795 88.522 90 88 90 z" style="stroke: none; stroke-width: 1; stroke-dasharray: none; stroke-linecap: butt; stroke-linejoin: miter; stroke-miterlimit: 10; fill: rgb(0,0,0); fill-rule: nonzero; opacity: 1;" transform=" matrix(1 0 0 1 0 0) " stroke-linecap="round" />
	</g>
</svg>