<?xml version="1.0" encoding="utf-8"?><!-- Uploaded to: SVG Repo, www.svgrepo.com, Generator: SVG Repo Mixer Tools -->
<svg id="unfollow" width="24px" height="24px" aria-hidden="true" xmlns="http://www.w3.org/2000/svg" viewBox="0 0 20 18">
    <style>
        #unfollow {
            fill: rgb(218, 20, 20);
        }
    </style>
    <path d="M6.5 9a4.5 4.5 0 1 0 0-9 4.5 4.5 0 0 0 0 9ZM8 10H5a5.006 5.006 0 0 0-5 5v2a1 1 0 0 0 1 1h11a1 1 0 0 0 1-1v-2a5.006 5.006 0 0 0-5-5Zm11-3h-6a1 1 0 1 0 0 2h6a1 1 0 1 0 0-2Z"/>
</svg>